#!OML:ASF E:\Steps\Project 1\Capture day 1\Session 2\Subject.ASF
:FULLY-SPECIFIED
:DEGREES
209
root 6.10375 16.0271 14.7678 -153.141 -29.371 180.686
lowerback -13.916 -9.40268 -18.3952
upperback 1.40742 -9.64987 -3.84151
thorax 11.7409 -5.72864 3.23723
lowerneck -5.20268 -5.76145 -1.35429
upperneck 22.8568 -11.1088 6.86966
head 8.42482 -5.34181 1.43398
rclavicle 1.59028e-014 5.40694e-014
rhumerus -75.6725 -6.5825 -52.0206
rradius 58.8173
rwrist -6.21744
rhand -5.46835 -52.0794
rfingers 7.12502
rthumb 20.3434 -441.034
lclavicle 1.59028e-014 5.40694e-014
lhumerus -23.9279 -33.877 29.8431
lradius 51.6201
lwrist 9.79225
lhand -24.2683 -18.7361
lfingers 7.12502
lthumb 2.21822 11.2321
rfemur -38.5337 -12.7739 -5.17257
rtibia 22.0321
rfoot -10.8337 -30.4275
rtoes -27.6153
lfemur -28.6487 -22.3986 24.0252
ltibia 37.4687
lfoot -38.5573 4.85342
ltoes -50.1206
210
root 6.21657 15.9113 14.6993 -152.442 -29.0905 179.638
lowerback -13.7378 -9.17798 -17.9592
upperback 1.35702 -9.47265 -3.98715
thorax 11.4347 -5.60836 2.95882
lowerneck -5.39325 -5.86212 -1.65104
upperneck 22.7214 -11.1437 6.86666
head 8.43005 -5.35852 1.47411
rclavicle 4.85035e-014 3.49861e-014
rhumerus -74.7039 -6.7291 -53.3346
rradius 57.6002
rwrist -5.69169
rhand -6.04617 -51.9378
rfingers 7.12502
rthumb 19.788 -440.951
lclavicle 4.85035e-014 3.49861e-014
lhumerus -24.1053 -33.1136 30.2926
lradius 50.993
lwrist 9.96735
lhand -24.1877 -18.7268
lfingers 7.12502
lthumb 2.29604 11.2406
rfemur -39.3872 -14.1145 -5.1056
rtibia 23.2077
rfoot -15.506 -29.1211
rtoes -17.9108
lfemur -28.8905 -22.1156 23.632
ltibia 37.8248
lfoot -38.6416 5.2319
ltoes -50.675
211
root 6.32512 15.8032 14.6336 -152.047 -28.6466 178.457
lowerback -13.2247 -8.88035 -17.7572
upperback 1.45189 -9.21549 -4.20577
thorax 11.1202 -5.47189 2.77211
lowerneck -5.43352 -5.95911 -1.67245
upperneck 22.3949 -11.143 6.7272
head 8.31828 -5.35508 1.43774
rclavicle -5.56597e-015 9.54166e-014
rhumerus -73.4118 -6.99179 -54.6217
rradius 56.2768
rwrist -5.07916
rhand -5.65432 -51.2934
rfingers 7.12502
rthumb 20.1646 -440.267
lclavicle -5.56597e-015 9.54166e-014
lhumerus -24.3058 -32.2033 30.7562
lradius 50.4205
lwrist 10.5038
lhand -24.3818 -18.7724
lfingers 7.12502
lthumb 2.10862 11.1969
rfemur -40.0054 -15.4242 -5.37685
rtibia 24.492
rfoot -15.7341 -27.934
rtoes -23.0082
lfemur -28.6312 -22.2261 22.84
ltibia 38.0123
lfoot -38.6235 5.919
ltoes -51.4375
212
root 6.43176 15.7058 14.5792 -151.756 -28.1492 177.212
lowerback -12.3863 -8.58165 -17.7032
upperback 1.53956 -9.0094 -4.40086
thorax 10.6511 -5.3634 2.7167
lowerneck -5.49111 -6.06184 -1.61595
upperneck 22.0544 -11.1393 6.50347
head 8.19608 -5.35092 1.36148
rclavicle 3.57812e-014 1.46306e-013
rhumerus -71.9456 -7.08338 -55.9752
rradius 55.0919
rwrist -4.71356
rhand -5.70861 -51.3787
rfingers 7.12502
rthumb 20.1125 -440.358
lclavicle 3.57812e-014 1.46306e-013
lhumerus -24.6277 -31.1522 31.3645
lradius 49.8055
lwrist 10.9291
lhand -24.812 -18.5405
lfingers 7.12502
lthumb 1.69312 11.4325
rfemur -40.8106 -16.809 -5.94593
rtibia 26.413
rfoot -17.4677 -26.3844
rtoes -25.0236
lfemur -28.2646 -22.2434 21.8551
ltibia 38.1525
lfoot -38.5623 6.33504
ltoes -52.5818
213
root 6.53586 15.618 14.5391 -151.446 -27.4559 176.206
lowerback -11.595 -8.27899 -17.4596
upperback 1.51265 -8.82892 -4.54125
thorax 10.0617 -5.24641 2.62379
lowerneck -5.32773 -6.10396 -1.84604
upperneck 21.5127 -11.0849 6.65566
head 8.00236 -5.32754 1.47014
rclavicle 3.97569e-015 1.97194e-013
rhumerus -70.2635 -6.99796 -57.3298
rradius 53.9059
rwrist -4.13109
rhand -6.00092 -52.0042
rfingers 7.12502
rthumb 19.8315 -441.012
lclavicle 3.97569e-015 1.97194e-013
lhumerus -25.2079 -30.1089 32.0659
lradius 49.1659
lwrist 11.4185
lhand -25.0618 -18.0071
lfingers 7.12502
lthumb 1.45185 11.9677
rfemur -42.6127 -18.5323 -6.13378
rtibia 29.426
rfoot -17.971 -24.1693
rtoes -26.7902
lfemur -27.9435 -21.7259 20.9573
ltibia 38.4184
lfoot -38.5777 6.45562
ltoes -53.7252
214
root 6.63285 15.5441 14.5055 -151.227 -26.5915 175.464
lowerback -10.9295 -7.95313 -17.0318
upperback 1.49203 -8.60504 -4.64853
thorax 9.52458 -5.09981 2.46239
lowerneck -5.14134 -6.14274 -2.1042
upperneck 21.0343 -11.0544 6.84598
head 7.83189 -5.31784 1.5922
rclavicle -1.98785e-014 -2.54444e-014
rhumerus -68.4672 -6.81997 -58.6972
rradius 52.8973
rwrist -3.23196
rhand -5.96773 -52.0813
rfingers 7.12502
rthumb 19.8634 -441.086
lclavicle -1.98785e-014 -2.54444e-014
lhumerus -25.8956 -29.0782 32.8046
lradius 48.4962
lwrist 12.129
lhand -25.1738 -17.3306
lfingers 7.12502
lthumb 1.3437 12.6449
rfemur -45.2462 -20.3951 -5.72582
rtibia 33.2534
rfoot -18.0851 -21.9717
rtoes -28.405
lfemur -27.3816 -21.2783 20.161
ltibia 38.4781
lfoot -38.6103 6.06414
ltoes -53.2184
215
root 6.72332 15.4875 14.4785 -151.113 -25.684 175.021
lowerback -10.3358 -7.60481 -16.3906
upperback 1.54721 -8.33612 -4.691
thorax 9.09175 -4.92528 2.24898
lowerneck -5.24572 -6.26967 -2.05992
upperneck 20.7917 -11.1189 6.63068
head 7.75787 -5.34743 1.51073
rclavicle -3.18055e-015 -1.46306e-013
rhumerus -66.4957 -6.56633 -60.1745
rradius 52.0792
rwrist -2.53386
rhand -6.39195 -51.7327
rfingers 7.12502
rthumb 19.4555 -440.779
lclavicle -3.18055e-015 -1.46306e-013
lhumerus -26.398 -27.9668 33.57
lradius 47.6239
lwrist 12.8802
lhand -25.3756 -16.7345
lfingers 7.12502
lthumb 1.14877 13.2422
rfemur -47.7064 -21.8037 -5.10227
rtibia 36.1234
rfoot -17.6118 -20.4281
rtoes -29.3698
lfemur -26.6421 -20.6964 19.5642
ltibia 38.2055
lfoot -38.614 5.06327
ltoes -51.4516
216
root 6.81003 15.445 14.4495 -151.12 -24.6888 174.751
lowerback -9.73809 -7.26271 -15.7459
upperback 1.66177 -8.0537 -4.65008
thorax 8.74058 -4.74773 2.11143
lowerneck -5.52247 -6.31476 -1.93344
upperneck 20.5402 -11.0159 6.21921
head 7.68734 -5.29715 1.36289
rclavicle 1.35174e-014 4.13472e-014
rhumerus -64.2382 -6.1023 -61.718
rradius 51.2803
rwrist -1.96354
rhand -7.19497 -51.5627
rfingers 7.12502
rthumb 18.6833 -440.685
lclavicle 1.35174e-014 4.13472e-014
lhumerus -26.9588 -26.7906 34.4108
lradius 46.6958
lwrist 13.7319
lhand -25.4159 -16.4253
lfingers 7.12502
lthumb 1.10988 13.5516
rfemur -50.038 -22.8561 -4.29932
rtibia 38.7131
rfoot -17.3281 -19.0585
rtoes -30.4291
lfemur -25.6822 -19.6873 18.9355
ltibia 37.8322
lfoot -38.4269 5.13652
ltoes -52.2114
217
root 6.89442 15.4106 14.4128 -151.096 -23.6227 174.328
lowerback -9.11423 -7.01815 -15.3877
upperback 1.78687 -7.86957 -4.56642
thorax 8.45344 -4.63532 2.13554
lowerneck -5.90273 -6.21023 -2.02454
upperneck 20.2405 -10.6746 5.87245
head 7.62412 -5.13951 1.29014
rclavicle 6.44062e-014 -7.95139e-014
rhumerus -61.7644 -5.25707 -63.2511
rradius 50.6086
rwrist -1.34522
rhand -7.48353 -51.6041
rfingers 7.12502
rthumb 18.4057 -440.753
lclavicle 6.44062e-014 -7.95139e-014
lhumerus -27.8274 -25.6916 35.3231
lradius 45.8396
lwrist 14.8272
lhand -25.2411 -16.2574
lfingers 7.12502
lthumb 1.27872 13.7185
rfemur -51.8957 -23.6187 -3.84841
rtibia 40.6264
rfoot -17.0931 -17.9334
rtoes -31.3602
lfemur -24.5268 -18.8248 18.0653
ltibia 37.275
lfoot -38.0516 6.50129
ltoes -54.9498
218
root 6.98019 15.3833 14.3651 -151.135 -22.8062 173.698
lowerback -8.4071 -6.89055 -15.3468
upperback 1.98232 -7.81576 -4.45439
thorax 8.26849 -4.60836 2.32072
lowerneck -5.86967 -6.18996 -2.19494
upperneck 19.6375 -10.4384 5.63347
head 7.40359 -5.04524 1.27647
rclavicle 1.1609e-013 1.145e-013
rhumerus -59.3133 -4.00859 -64.8339
rradius 50.067
rwrist -0.913674
rhand -7.64256 -51.3968
rfingers 7.12502
rthumb 18.2527 -440.56
lclavicle 1.1609e-013 1.145e-013
lhumerus -28.6704 -25.0204 36.2788
lradius 44.9241
lwrist 15.9436
lhand -25.103 -16.1857
lfingers 7.12502
lthumb 1.41213 13.7893
rfemur -52.8925 -24.3157 -3.79891
rtibia 41.8081
rfoot -17.0108 -17.078
rtoes -32.4534
lfemur -23.2414 -18.5679 17.1541
ltibia 36.3345
lfoot -37.6065 7.52622
ltoes -56.5181
219
root 7.0667 15.367 14.299 -151.518 -22.3615 172.983
lowerback -7.6346 -6.83481 -15.5717
upperback 2.44143 -7.81325 -4.27174
thorax 8.39894 -4.64261 2.68279
lowerneck -5.43738 -6.23368 -2.33079
upperneck 18.6981 -10.2906 5.49223
head 7.01294 -4.99627 1.30141
rclavicle 3.26007e-014 1.08139e-013
rhumerus -56.881 -2.38296 -66.4721
rradius 49.6767
rwrist -0.859998
rhand -8.57299 -50.8521
rfingers 7.12502
rthumb 17.3574 -440.097
lclavicle 3.26007e-014 1.08139e-013
lhumerus -29.1741 -24.4386 37.2811
lradius 43.8094
lwrist 16.5452
lhand -24.8667 -16.0763
lfingers 7.12502
lthumb 1.64032 13.8971
rfemur -52.6202 -24.877 -4.06614
rtibia 42.2077
rfoot -17.2341 -16.4412
rtoes -33.4121
lfemur -21.7129 -18.7213 16.2485
ltibia 35.1651
lfoot -37.0604 7.91044
ltoes -57.4063
220
root 7.13607 15.3299 14.2809 -150.314 -21.2046 172.899
lowerback -8.64169 -6.77751 -14.7694
upperback 2.33653 -7.61172 -4.04575
thorax 8.74933 -4.5061 2.4378
lowerneck -5.26048 -6.18509 -2.48439
upperneck 17.9606 -10.057 5.40555
head 6.73631 -4.89482 1.33941
rclavicle -3.49861e-014 3.18055e-015
rhumerus -54.5573 -0.653284 -67.9954
rradius 49.9627
rwrist -1.50831
rhand -8.76023 -51.5434
rfingers 7.12502
rthumb 17.1772 -440.804
lclavicle -3.49861e-014 3.18055e-015
lhumerus -29.5929 -23.772 38.1959
lradius 42.6514
lwrist 16.4372
lhand -24.3697 -15.9169
lfingers 7.12502
lthumb 2.12034 14.0524
rfemur -55.6082 -25.3886 -2.8836
rtibia 43.5361
rfoot -17.6852 -15.7784
rtoes -33.6712
lfemur -21.9439 -16.9815 16.2003
ltibia 34.6596
lfoot -36.6165 7.3511
ltoes -56.9128
